<?xml version="1.0" encoding="UTF-8"?>
<svg version="1.1" viewBox="0 0 1768 1424" width="1280" height="1280" xmlns="http://www.w3.org/2000/svg">
<path transform="translate(0)" d="m0 0h1768v1424h-1768z" fill="#FCFCFC"/>
<path transform="translate(743,293)" d="m0 0h6l-2 11-2 7v13l5 22 8 19 8 14 11 16 13 16 7 8 12 13 13 13 8 7 10 9 16 12 16 11 22 14 15 10 16 11 13 10 10 9 7 7 9 14 3 9 1 6v8l-2 11-7 14-11 12-9 9-14 11-9 8-11 9-10 9-7 8 1 14 5 40 2 32v65l-2 31-5 40-5 29-3 16v9l19 9 11 8 9 9 4 8 1 5h82l-4-45-2-35v-37l2-34 5-47 3-14v-11l-5-10-9-19-9-14-9-11-5-6-12-9-12-7-13-4-5-1h-8l20 6 15 8 2 3-3 2-16-1-26-9-14-6 1-3 17-9 9-2 14 1 11 4 11 6 10 9 11 11 11 15 9 15 8 16v2h2l3-10 6-19 6-16 7-16 10-18 9-12 9-10 10-8 14-7 12-2h8l14 4v3l-14 10-10 7-14 8-9 3h-4l1-4h2l2-4 10-8 14-9 6-3v-1l-9 3-17 9-12 11-8 8-12 18-9 17-9 23-8 28-6 32-3 22-3 42-1 31 8-16 12-20 8-10 9-10 9-9 14-11 14-9 8-4 6-2 17-1 13 2 9 4 7 4-1 2-26 10-19 5h-15l1-3 18-8 15-5 10-2h-13l-17 4-17 7-16 12-16 16-10 13-8 13-10 19-6 15-3 12v18l2 39 1 19 98 1-1 8-45 1h-621l-28-1v-8l60-1h27l-1-76-2-45-2-23-6-35-6-26-7-21-8-15-8-10-5-5-9-8-13-8-1 1 11 9 8 7 7 8 9 13v2l-7-1-12-6-9-8-11-14-12-16 1-3 15 1 11 3 16 8 6 5 10 13 10 21 9 27 6 25 1 1 8-28 10-29 12-27 8-15 9-13 11-12 13-9 11-4 5-1 18-1v3l-8 12-11 13-9 10-11 7-10 3h-4l2-5 9-12 8-8 8-7 4-4-10 6-11 9-7 7-10 14-11 21-12 30-11 34-7 25v16l2 31 1 7 4-4 7-8 10-6 9-3 13-1h7l-1 4-13 17-12 14-10 8-6 2-1-3 4-10 10-13 3-4h2v-3l-8 7h-2l-1 3-5 5-6 8-2 6-1 84h62l29-1 4-10 9-10 12-9 20-10-1-11-6-31-7-51-1-16-1-52 1-45 3-30 6-42 5-24 2-12-9-3-18-10-12-11-6-10-2-10 3-5 8-5 11-4 28-5 17-2 58-3h71l60 3 34 5 16 4 12 5 3 5v9l-4 10-7 8-13 9-20 10v9l4 19 12-12 14-11 20-16 10-9h2l2-4 7-8 6-12 1-4v-17l-4-10-7-10-12-12-19-14-26-17-30-20-19-14-16-13-13-12-25-25-9-11-12-16-12-19-9-17-5-14-5-20v-15l5-16z" fill="#534A46"/>
<path transform="translate(866,638)" d="m0 0 3 1 2 4 5 29 2-4 1 3 1 2 4 34 2 24 1 7 1 30-1 42-10-2-21-8-17-9h-1l15 9 19 8 10 4 5 1-1 4-7-1v2l7 1v12l-3 29-8-1-24-7-25-10-19-12-6-5-1 3 5 2 12 8 16 9 16 6 19 6 13 4 2 2-2 3-16-4-20-7-13-5-11-6-12-6-2-3h-3l-2-1 9 7 9 5 16 8 19 7 27 7-1 11-5 29-2 1-35-10-17-6-16-7-20-11v2l5 2 1 3 7 1 9 5 15 7 18 6 17 5 11 3 6 3 1 3-1 1-9-1-13-4-12-4-5-2-9-2-10-4-6-2-8-3-4 1-2-1v-2l-2-1h5l-6-4-7-3-5-3-1-2h-2l-1 2 5 2 2 1v2l4 1 3 2v2h2l2 5-6 2v2l-8 3-3 2-10 3-3 3 9-3 20-9 7-3 9 2 26 10 29 8 8 2-1 9-3 15-7-1-38-7-30-3-22-1h-35l-21 2-39 6h-5l-4-1h-2l-2 4-5 1-1-7-7-2v-2h-3l-4-15-8-54-2-25-1-52 1-45 1-13 1-3h7v8h-2l1 3h1l1-16h3l-2 25-1 9h29l24-4 19-5 21-8 16-8 15-10 13-10 10-9 8-8 9-11 8-11 7-11 3-6 5-7h-8l4-2h5l3 2-1 3-1 4-2 5 4 1 7-14 5-3zm-36 21m-1 1m-1 1m50 249h1v5h-2z" fill="#534A47"/>
<path transform="translate(417,234)" d="m0 0 20 10 20 6 22 4 18 2 60 3 15 2 24 6 20 9 11 7 7 5 5-2 14-13 1-2h2l2-4 4-4h2v-2l8-7 8-6 11-5 10-3h11l9 2 11 6 8 9 5 10 3 9h4l2-4 7-6 10-6 7-2h16l8 4 5 5 4 5 5 10 3 12 1 13v15l-1 20-3 10-3 3 3-12v-26l-1-12-4-13-3-10-7-10-5-4-6-2h-9l-9 3-11 8-1 3 8 4v2l-25 3-11 5-6 4-4 5-4 13-1 4-1 41-3 15-4 10-6 12-9 12-11 13-9 9-11 9-12 9-20 13-21 12-28 13-27 10-24 7-30 6-8 1h-29l-7-1-5-3-6-2v-1l16-3 20-7 16-8 12-9 13-13 9-14 6-12 6-13 1-4-12-2-21-8-18-10-14-10-13-11-7-7-9-11-10-13-13-22-11-23-6-15-5-16 4 1 15 8 26 8 23 3 38 3 38 4 16 4 15 6 10 6 4 3v-2l-4-2-9-7-19-10-16-5-23-6-49-10-24-8-15-8-9-8-9-14z" fill="#534A46"/>
<path transform="translate(1102,634)" d="m0 0h8l14 4v3l-14 10-10 7-14 8-9 3h-4l1-4h2l2-4 10-8 14-9 6-3v-1l-9 3-17 9-12 11-8 8-12 18-9 17-9 23-8 28-6 32-3 22-3 42-1 31 8-16 12-20 8-10 9-10 9-9 14-11 14-9 8-4 6-2 17-1 13 2 9 4 7 4-1 2-26 10-19 5h-15l1-3 18-8 15-5 10-2h-13l-17 4-17 7-16 12-16 16-10 13-8 13-10 19-6 15-3 12v18l2 39 1 19 98 1-1 8-45 1h-621l-28-1v-8l60-1h27l-1-76-2-45-2-23-6-35-6-26-7-21-8-15-8-10-5-5-9-8-13-8-1 1 11 9 8 7 7 8 9 13v2l-7-1-12-6-9-8-11-14-12-16 1-3 15 1 11 3 16 8 6 5 10 13 10 21 9 27 6 25 1 1 8-28 10-29 12-27 8-15 9-13 11-12 13-9 11-4 5-1 18-1v3l-8 12-11 13-9 10-11 7-10 3h-4l2-5 9-12 8-8 8-7 4-4-10 6-11 9-7 7-10 14-11 21-12 30-11 34-7 25v16l2 31 1 7 4-4 7-8 10-6 9-3 13-1h7l-1 4-13 17-12 14-10 8-6 2-1-3 4-10 10-13 3-4h2v-3l-8 7h-2l-1 3-5 5-6 8-2 6-1 84h62l29-1 4-10 9-10 12-9 20-10-1-15h3v2h7l1 2v7l6-3 3-3 9 1 39-6 21-2h35l35 2 29 4 26 5 7 2 1-9 3-15-12-2-28-8-25-10-7-1-31 14h-5l1-3 7-3 6-2 6-3h4v-2l6-2-2-5h-2v-2l-4-2-3-1v-2l-5-2-2-1 1-3 3 1 2 2 1 2 9 3 7 5-4 1v2l5 1 1-2 13 5 10 3 4 2 9 2 7 3 17 5 7 2h5l-2-3-9-3-35-11-15-6-9-4-1-2-5-2-7-2-4-4-2-1v-2l5 2 17 9 19 8 22 7 26 7 7-40-12-2-21-6-24-10-11-7-9-5-6-5 2-1 4 3h3l1 3h4l2 3 5 1 7 4 5 3 13 5 20 7 16 5v-4l-15-5-17-5-16-6-10-6-6-3-12-8-5-3 1-4 12 9 17 10 24 9 24 7 5 1 1-18 2-23-7-1v-2l7 1 1-4h-5l-10-4-21-9-16-10 3-1 14 8 19 8 13 4 4 2 1 22-3 23-4 34-2 12 3-1 1-3 2-1 2-4v9l-7 38v9l19 9 11 8 9 9 4 8 1 5h82l-4-45-2-35v-37l2-34 5-47 3-14v-11l-5-10-9-19-9-14-9-11-5-6-12-9-12-7-13-4-5-1h-8l20 6 15 8 2 3-3 2-16-1-26-9-14-6 1-3 17-9 9-2 14 1 11 4 11 6 10 9 11 11 11 15 9 15 8 16v2h2l3-10 6-19 6-16 7-16 10-18 9-12 9-10 10-8 14-7zm-224 276-1 5h2v-5z" fill="#534A46"/>
<path transform="translate(902,1078)" d="m0 0h7l4 5 4 10 1 5v13l-6 25-8 21-7 15-8 16-10 19-20 30-10 13-12 14-13 13-5 4-3 8-3 19v21l3 11 3 5 6 4h8l10-4 11-9 12-15 10-17 9-24 11-25 9-16 11-12 6-4 9-1 4 2 2 4-1 8-8 16-10 17-9 16-6 15-4 14-1 13 2 11 5 6 5 2h11l13-5 13-10 7-8 12-18 10-19 9-20 7-13 9-10 7-6 10-4h12l10 3 9 8 6 12 2 10 4-2 5-5h2v-2l8-7 8-8 11-9 10-7 8-1 5 2v2l-11 7-15 14-13 13-7 8-11 12 1 20 3 24 4 12 5 6 9 1 9-3 9-7 9-9 14-19 8-14 1-3h3v7l-5 13-8 14-11 13-8 8-14 10-10 4-12 1-8-2-8-7-5-8-5-15-3-16v-3l-5 5-13 15-10 13-11 14-12 15-4 2-4-4 3-9 6-11 14-19 13-16 11-13 8-10v-10l-5-25-4-6-3-2h-7l-8 4-8 8-11 17-10 18-10 19-8 13-8 10-8 8-12 8-13 5-12 2-14-1-7-3-6-5-5-10-2-8-1-12-4 5-9 12-9 10-15 10-8 3-6 1h-13l-11-6-6-9-4-13-1-8v-12h-2l-2 6-6 9-9 10-9 8-16 10-11 4-12 1-12-4-6-4-6-11-2-16-13 16-8 8-11 9-13 7-12 1-9-2-7-4-8-9-3-14 1-14 4-15 5-12 8-15 9-13 8-10 18-18 13-10 16-8 17-4h11l12 3 8 5 8 9 2 5v11l-3 6-5 4-5 2-5-1v-20l-4-8-6-4-8-1-14 3-12 7-11 10-13 17-7 11-9 17-7 19-3 12-1 11 2 8 3 5 4 1 12-4 10-7 10-9 7-8 4-5 5-5 14-18 14-20 3-5h11l5 4 1 5-4 9-9 17-7 16-1 4v11l4 7 4 3h9l12-6 13-11 10-11 13-18 5-11 6-23 7-21 11-28 15-33 16-32 14-24 10-16 11-16 9-11 7-7z" fill="#534A46"/>
<path transform="translate(553,1078)" d="m0 0h22l11 3 8 6 5 8 4 13v17l-5 23-8 21-10 21-6 9-5-2-6-5-1-3v-15l4-15 11-29 5-16 1-7v-8l-3-6-6-5-8-1v-2l-24 5-14 6-14 10-13 13-9 13-7 14-4 13-1 13 2 12 6 10 13 13 13 9 28 16 15 10 9 7 10 9 9 13 5 11 2 10v21l-2 10-6 16-8 10-5 6-13 10-19 10-18 6-19 3h-18l-15-2-17-6-13-8-14-14-8-16-2-8v-28l4-13 6-8 9-8 10-5 11-3h6l-2 5-7 11-5 11-3 9-1 6v17l3 12 7 14 4 5 10 6 11 5 9 2 12 1 18-2 17-5 14-7 10-9 4-5 4-6 3-14v-18l-4-11-7-11-5-5-10-9-13-9-20-12-14-8-14-10-10-9-10-13-5-10-2-11v-14l3-15 7-16 9-16 12-14 8-8 10-7 16-9 16-6z" fill="#534A46"/>
<path transform="translate(866,638)" d="m0 0 3 1 2 4 4 22v10l-11 18-9 13-10 13-11 12-7 8h-2v2l-11 9-10 8-21 14-23 12-25 10-21 6-11 1-4 2-28 3-25 1-2-1v-40l29-1 21-3 20-5 18-6 20-9 17-10 14-10 11-9 17-17 13-17 9-14 8-16 4-5z" fill="#DAB656"/>
<path transform="translate(740,941)" d="m0 0h44l27 2 35 6 20 5 20 8 11 6 9 7 7 7 3 4v2l-3 1h-268l-31-1 2-4 9-10 8-6 15-8 24-8 17-4 21-4z" fill="#FDFDFD"/>
<path transform="translate(926,1222)" d="m0 0 8 1 3 5-1 8-8 16-10 17-9 16-6 15-4 14-1 13 2 11 5 6 5 2h11l13-5 13-10 7-8 12-18 10-19 9-20 7-13 9-10 7-6 10-4h12l10 3 9 8 6 12 2 10 4-2 5-5h2v-2l8-7 8-8 11-9 10-7 8-1 5 2v2l-11 7-15 14-13 13-7 8-11 12 1 20 3 24 4 12 5 6 9 1 9-3 9-7 9-9 14-19 8-14 1-3h3v7l-5 13-8 14-11 13-8 8-14 10-10 4-12 1-8-2-8-7-5-8-5-15-3-16v-3l-5 5-13 15-10 13-11 14-12 15-4 2-4-4 3-9 6-11 14-19 13-16 11-13 8-10v-10l-5-25-4-6-3-2h-7l-8 4-8 8-11 17-10 18-10 19-8 13-8 10-8 8-12 8-13 5-12 2-14-1-7-3-6-5-5-10-2-8-1-12-1-4 2-4-3 1 2-6 6-12 8-22 11-24 8-13 9-10 7-5z" fill="#534A46"/>
<path transform="translate(828,645)" d="m0 0h5l3 2-1 3-1 4-2 5 3 1-1 5-9 14-10 13-11 12-13 13-16 12-18 11-16 8-20 8-23 6-16 3-9 1h-29v40l27-1 31-3 1-2 15-1-1 2-6 1 2 2-3 2-1-4-7 2-6 1-16 2-5 1h-5l-1 4-6-1h-7l-3-1 1 3 7 1h14l3 2h-34l3 32 1 16 38-2 22-3 5-1h9l-2 2-25 5-26 1-5 1-9 1 2 2 1 2h6v1l-14 1 3 25 4 21h29l20-2 30-6 16-5 13-4 24-10 3-2v2h2l2 5-6 2v2l-8 3-3 2-10 3-3 3 9-3 20-9 7-3 9 2 26 10 29 8 8 2-1 9-3 15-7-1-38-7-30-3-22-1h-35l-21 2-39 6h-5l-4-1h-2l-2 4-5 1-1-7-7-2v-2h-3l-4-15-8-54-2-25-1-52 1-45 1-13 1-3h7v8h-2l1 3h1l1-16h3l-2 25-1 9h29l24-4 19-5 21-8 16-8 15-10 13-10 10-9 8-8 9-11 8-11 7-11 3-6 5-7h-8z" fill="#534A47"/>
<path transform="translate(1102,634)" d="m0 0h8l14 4v3l-14 10-10 7-14 8-9 3h-4l1-4h2l2-4 10-8 14-9 6-3v-1l-9 3-17 9-12 11-8 8-12 18-9 17-9 23-8 28-6 32-3 22-3 42-1 31 8-16 12-20 8-10 9-10 9-9 14-11 14-9 8-4 6-2 17-1 13 2 9 4 7 4-1 2-26 10-19 5h-15l1-3 18-8 15-5 10-2h-13l-17 4-17 7-16 12-16 16-10 13-8 13-10 19-6 15-3 12v18l2 39 1 19 98 1-1 6-2 1h-41l-22-1-4-1h-7l-5-1h-18l-1-1h-110l-64 1h-166l-55-1-1-3 302-1h89l-4-45-2-35v-37l2-34 5-47 3-14v-11l-5-10-9-19-9-14-9-11-5-6-12-9-12-7-13-4-5-1h-8l20 6 15 8 2 3-3 2-16-1-26-9-14-6 1-3 17-9 9-2 14 1 11 4 11 6 10 9 11 11 11 15 9 15 8 16v2h2l3-10 6-19 6-16 7-16 10-18 9-12 9-10 10-8 14-7z" fill="#524945"/>
<path transform="translate(827,647)" d="m0 0h5l-2 5-4 5-4 8-8 12-11 13-9 10-9 9-17 13-18 11-14 7-22 8-26 6-14 2h-29l-1-3 4-36 1-1 26-2 24-5 19-7 16-8 14-9 10-8 10-9 12-14 2-2z" fill="#DAB656"/>
<path transform="translate(753,797)" d="m0 0 6 1 9 11 10 10 13 10 12 8 8 6 9 5 16 8 19 7 27 7-1 11-5 29-2 1-35-10-17-6-16-7-20-11-14-10-10-8-13-12-8-7-7-8-9-10-4-5v-3l-4-2v-3l17-5z" fill="#DAB656"/>
<path transform="translate(727,576)" d="m0 0h80l44 3 48 5 15 4 3 3-5 2-16 3-43 5-30 2-37 1h-52l-42-2-25-2-32-4-20-4-1-3 13-4 31-4 31-3z" fill="#FDFDFD"/>
<path transform="translate(909,602)" d="m0 0 2 1-5 5-10 7-15 8-27 9-23 5-15 2-30 2h-46l-26-2-23-4-21-5-21-7-17-9-9-6-2-5 10 1 21 4 16 2 41 2 20 1h68l48-2 32-3z" fill="#FDFDFD"/>
<path transform="translate(744,860)" d="m0 0 7 1 14 12 15 10 5 3v2l4 1 2 3-5 3-23 10-17 5-19 5-27 5-14 1h-29l-2-7-4-22-2-18 1-1 36-1 20-2 25-6z" fill="#DAB656"/>
<path transform="translate(800,772)" d="m0 0 4 1 9 9 12 9 10 7 17 9 14 6 20 6v12l-3 29-8-1-24-7-25-10-19-12-22-18-12-11-5-6 1-5 20-11z" fill="#DAB656"/>
<path transform="translate(926,1222)" d="m0 0 8 1 3 5-1 8-8 16-10 17-9 16-6 15-4 14-1 13 2 11 5 6 5 2h11l13-5 13-10 7-8 12-18 2-2h2l-1 6h2l-2 6-8 13-8 10-8 8-12 8-13 5-12 2-14-1-7-3-6-5-5-10-2-8-1-12-1-4 2-4-3 1 2-6 6-12 8-22 11-24 8-13 9-10 7-5z" fill="#534A46"/>
<path transform="translate(712,648)" d="m0 0 10 1 16 2 30 1v3l-12 11-10 9-13 9-10 6-14 6-16 5-27 4h-14l-2-1 1-13 5-26 4-1 13-1 19-5 17-8z" fill="#DAB656"/>
<path transform="translate(802,898)" d="m0 0 9 2 26 10 29 8 8 2-1 9-3 15-7-1-38-7-30-3-22-1h-35l-21 2-39 6h-5l-4-1h-2l-2 4-5 1-1-13h14l42-4 20-4 24-7 16-6 20-9z" fill="#DAB656"/>
<path transform="translate(704,812)" d="m0 0 4 2 8 11 10 11 7 8 6 7-2 2-24 6-17 3-26 2h-22l-4-35v-13l34-1z" fill="#DAB656"/>
<path transform="translate(743,293)" d="m0 0h6l-2 11-2 7v13l5 22 8 19 8 14 11 16 13 16 7 8 12 13 13 13 8 7 10 9 16 12 16 11 22 14 15 10 16 11 13 10 10 9 7 7 9 14 3 9 1 6v8l-2 11-7 14-11 12-9 9-4 1v-2l4-1-2-4v3l-4 1v3h-2l-1-5 11-10h2l2-4 7-8 6-12 1-4v-17l-4-10-7-10-12-12-19-14-26-17-30-20-19-14-16-13-13-12-25-25-9-11-12-16-12-19-9-17-5-14-5-20v-15l5-16z" fill="#423534"/>
<path transform="translate(901,1108)" d="m0 0 5 1v9l-4 17-7 19-14 29-10 18-12 19-13 19-10 13-9 11-5 5 1-8 10-29 12-28 12-26 13-24 11-18 9-13 9-12z" fill="#FDFDFD"/>
<path transform="translate(840,739)" d="m0 0 4 2 3 3v2l5 2 15 10 19 9 1 1v42l-10-2-21-8-17-9-12-9-11-10-5-5 2-4 15-13z" fill="#DAB656"/>
<path transform="translate(878,668)" d="m0 0 1 3 1 2 4 34 2 24 1 7 1 30-9-3-17-9-15-10-5-6h-4l2-5h2l-1-1-5-1-2 4h-2l-2 4-10 10-5 4-6 3-5 5-7 2-1 3-4 2-9 6-5 2-7 3-1-3 15-8 16-11 12-9 10-9h2v-2l5-4 7-8 9-10 14-19 12-20 2-3h2l1-6z" fill="#453A38"/>
<path transform="translate(717,800)" d="m0 0h13l-1 2-3 2-3 3-7 1v5l5 1 3 5 11 13 11 12 8 7 11 10 15 11 6 4v3l5 2 1 3 7 1 9 5 15 7 18 6 17 5 11 3 6 3 1 3-1 1-9-1-13-4-12-4-5-2-9-2-10-4-6-2-8-3-4 1-2-1v-2l-2-1h5l-6-4-7-3-5-3-1-2-4 1-14-10-12-10-7-1-16 5-22 5-20 2h-22l-8-2-2-3 1-1 11-1 3-1 26-1 25-5-2-2 19-5v-3l-11-11-9-11-7-8-3-5-3-1-14 2h-29l-9-1 1-4h14l2 1 1-3 22-4h8l5-2h4l2 3 1-1-2-2zm161 110h1v5h-2z" fill="#575457"/>
<path transform="translate(1006,919)" d="m0 0 2 1v15l2 1v-17h1l1 11 2 39 1 19 98 1-1 6-2 1h-41l-22-1-4-1h-7l-5-1h-18l-1-1h-110l-64 1h-166l-55-1-1-3 302-1h89l-1-8-1-31v-20z" fill="#3F3231"/>
<path transform="translate(866,638)" d="m0 0 3 1 2 4-1 4-13 2-9 4-10 19-13 19-8 10-14 15-11 10-16 12-15 9-23 11-20 7-26 6-14 1h-28l-1 33-5 1v-40l29-1 21-3 20-5 18-6 20-9 17-10 14-10 11-9 17-17 13-17 9-14 8-16 4-5z" fill="#FDFDFD"/>
<path transform="translate(835,789)" d="m0 0 4 1 17 9 32 12 1 22-3 23-4 34-2 12 3-1 1-3 2-1 2-4v9l-8 44-3 3-2-3v-3h-2v-2h-2l1-12 2-9-12-2-28-8-25-10-7-1-31 14h-5l1-3 7-3 6-2 6-3h4v-2l6-2-2-5h-2v-2l-4-2-3-1v-2l-5-2-2-1 1-3 3 1 2 2 1 2 9 3 7 5-4 1v2l5 1 1-2 13 5 10 3 4 2 9 2 7 3 17 5 7 2h5l-2-3-9-3-35-11-15-6-9-4-1-2-5-2-7-2-4-4-2-1v-2l5 2 17 9 19 8 22 7 26 7 7-40-12-2-21-6-24-10-11-7-9-5-6-5 2-1 4 3h3l1 3h4l2 3 5 1 7 4 5 3 13 5 20 7 16 5v-4l-15-5-17-5-16-6-10-6-6-3-12-8-5-3 1-4 12 9 17 10 24 9 24 7 5 1 1-18 2-23-7-1v-2l7 1 1-4h-5l-10-4-21-9-16-10zm43 121-1 5h2v-5z" fill="#433736"/>
<path transform="translate(1113,792)" d="m0 0 16 2 9 4 7 4-1 2-26 10-19 5h-15l1-3 18-8 15-5 10-2h-13l-17 4-17 7-16 12-16 16-10 13-8 13-10 19-5 10-1-3-1-8 3-5 1-9 8-14 8-12 11-13 12-12 14-11 14-9 8-4 6-2z" fill="#524945"/>
<path transform="translate(1102,634)" d="m0 0h8l14 4v3l-14 10-10 7-14 8-9 3h-4l1-4h2l2-4 10-8 14-9 6-3v-1l-9 3-17 9-12 11-8 8-12 18-9 17-9 23-3 2-4 11-2-2 3-12v-8l8-20 8-16 6-11 9-12 9-10 10-8 14-7z" fill="#423534"/>
<path transform="translate(827,647)" d="m0 0h5l-2 5-4 4-37 3-5 1-2 4-12 13-7 7-14 11-13 8-14 7-16 6-24 5-7 1-23 1-2 31v2h-5l-1-3 4-36 1-1 26-2 24-5 19-7 16-8 14-9 10-8 10-9 12-14 2-2z" fill="#FDFDFD"/>
<path transform="translate(887,698)" d="m0 0 2 1-1 4-1 2 2 1 3 3 3 29 1 21v65l-2 31-5 40-3 3h-2l-1 4h-2l-1 2-1-4 3-18 3-26 3-23v-22l-3-1h2v-52l-1-20-2-16-1-19 1 2h2l-2-4z" fill="#575456"/>
<path transform="translate(802,898)" d="m0 0 9 2 26 10 29 8 8 2v5l-3 1-17-4-32-11-11-5h-6l-16 8-14 6-37 12-21 2-39 6h-5l-4-1h-2l-2 4-5 1-1-13h14l42-4 20-4 24-7 16-6 20-9z" fill="#FDFDFD"/>
<path transform="translate(1010,780)" d="m0 0 1 4h2v7l2 1 1 3-1 16-3 42-1 31 6-12h1v7l-3 5 1 13-4 15-1 7-1 17-3-1v-15l-1 10v38h-1l-3-39-1-21v-37l2-34 5-47z" fill="#524945"/>
<path transform="translate(878,688)" d="m0 0h2l1 16 2 19 2 23v11l-5-2-13-7-11-8-8-8 4-7 10-12 10-15z" fill="#DAB656"/>
<path transform="translate(791,891)" d="m0 0 1 2h2l2 5-6 2v2l-8 3-3 2-10 3-3 3 2 1-22 7-24 6-36 4h-18l-7-1-3-5 1-2 27-1 13-2 7-2 30-6 16-5 13-4 24-10z" fill="#575456"/>
<path transform="translate(818,679)" d="m0 0v3l-2 6-6 5-2 7-17 17-16 12-18 11-16 8-20 8-23 6-16 3h-17l-16-2h-2v-3l4-1 26-2 17-3 17-4 11-3 21-8 16-8 22-15 10-9 8-7 2-3h2l2-4 6-7h2l2-4z" fill="#575456"/>
<path transform="translate(837,938)" d="m0 0 11 1 22 5 1-4 2 1v2h2l2 5 3-2 1 3 19 9 11 8 9 9 4 8 1 5 2 1h-14l3-1-7-9-9-8-14-8-15-6-10-3-15-4-10-2 2-2-9-2-2-1 1-3 9-1z" fill="#524945"/>
<path transform="translate(744,860)" d="m0 0 7 1 14 12 15 10 5 3v2l4 1 2 3-1 1h-5l-1-3-13-10-13-8-4-3h-8l-30 8-16 2-19 1h-27l3 21 1 11 1 9-3-1-5-28-2-18 1-1 36-1 20-2 25-6z" fill="#FDFDFD"/>
<path transform="translate(712,648)" d="m0 0 10 1 16 2 30 1v3l-6 5-18-1-19-2-8-1-19 9-18 5-19 3-4 20-2 11h-5l1-13 5-26 4-1 13-1 19-5 17-8z" fill="#FDFDFD"/>
<path transform="translate(828,645)" d="m0 0h5l3 2-1 3-1 4-2 5 3 1-1 5-9 14-10 13-5 6h-2l2-6 5-5 2-6-4 5h-2l-2 4-6 7-8 7-11 11-16 11-13 8-14 7-21 8-26 6-17 3-26 2h-6l-1-3 28-1 9-2 26-5 24-8 16-7 13-8 12-8 16-13 12-12 9-11 8-11 7-11 3-6 5-7h-8z" fill="#423634"/>
<path transform="translate(955,1155)" d="m0 0h9l6 2 3 5v8l-4 7-7 6-11 4-9-1-6-4-2-3v-10l4-6 8-5z" fill="#534A46"/>
<path transform="translate(421,708)" d="m0 0 16 1 5 1 2 2 8 5v3l8 7 2 4 4 2 3 6-4-2-5-5-9-8-13-8-1 1 11 9 8 7 7 8 9 13v2l-7-1-12-6-9-8-11-14-12-16z" fill="#524945"/>
<path transform="translate(761,650)" d="m0 0h10l1 3-1 4h2l1 5-9 10-10 9-16 11-12 7-19 8h-5l2-1 2-4h2l1 1 2-2 6-3 4-1 4-2 5-1v-2h2l1-3-4 1-10 5-9 3-8 3-18 4-11 1h-14v-1l33-5 24-8 18-10 17-13 16-16-7-1z" fill="#534A46"/>
<path transform="translate(641,868)" d="m0 0 2 1v2l5-3 2 1-1 3 3 20 5 28h42v1l-17 2-23 1 2 5 12 2v1h-12l-2-1-1 5-6-1v-2h-3l-4-15-6-41v-6h2z" fill="#534946"/>
<path transform="translate(779,880)" d="m0 0 3 1 2 2 1 2 9 3 7 5-4 1v2l5 1 1-2 13 5 10 3 4 2 9 2 7 3 17 5 7 2h5l4-2-1-8 1-5 4-1 1-3 2-1 2-4v9l-8 44-3 3-2-3v-3h-2v-2h-2l1-12 2-9-12-2-28-8-25-10-7-1-31 14h-5l1-3 7-3 6-2 6-3h4v-2l6-2-2-5h-2v-2l-4-2-3-1v-2l-5-2-2-1z" fill="#524945"/>
<path transform="translate(764,795)" d="m0 0 4 1 1 3 2 1-1 4h3v3l3-1 3 3v3l6 2 2 4 4 2 4 4 4 2v3l4 2 4 3 5 1 8 5 12 6 12 5 14 5 17 5 8 3-2 4-16-4-20-7-13-5-11-6-12-6-2-3h-3l-5-2-11-7-14-12-10-10-4-5 2-5z" fill="#575456"/>
<path transform="translate(800,772)" d="m0 0 4 1 9 9 12 9 10 7 17 9 14 6 20 6v6l-7-1-16-6-12-5-11-6-12-8-10-9-8-7-2-2-6 1-22 12-6 3-5-1-1-5 24-14z" fill="#FDFDFD"/>
<path transform="translate(645,721)" d="m0 0h3l-2 25-1 9 27 1v1h-28l3 3v3l3-1 15 2 8 1v1h-29v27l-3 2-2-7h-2v7h-1l-1-8v-45l1-13 1-3h7v8h-2l1 3h1z" fill="#534B47"/>
<path transform="translate(807,761)" d="m0 0 4 1v2 1l7 8 11 10 7 5v2l17 10 19 8 10 4 5 1-1 4h-10l-15-5-21-10-11-7-11-8-3-5-3-2v-2l-3-1-4-7 3-1 1 3v-4l-4 1-6-3 2-2 6-1z" fill="#565355"/>
<path transform="translate(1090,640)" d="m0 0 4 1-17 9-7 6-7 9-3 5-4 4v6l-7 11-8 15-9 23-3 2-4 11-2-2 3-12v-8l8-20 8-16 6-11 6-8 8-6 7-6 10-7z" fill="#443836"/>
<path transform="translate(1113,792)" d="m0 0 16 2 9 4 7 4-1 2-26 10-19 5h-15l1-3 18-8 15-5 10-2h-13l-10 2h-6l2-4 7-1 4-1 1-2-6-1v-1z" fill="#433735"/>
<path transform="translate(878,668)" d="m0 0 1 3 1 2 3 27v7l-2-4-1-15-4 1 3-10-3 3-7 11-11 16-9 13-4 4h-2l-2 4-2 3h-3l-2 4h-2l-2 4-10 10-5 4-6 3-5 5-7 2-1 3-4 2-9 6-5 2-7 3-1-3 15-8 16-11 12-9 10-9h2v-2l5-4 7-8 9-10 14-19 12-20 2-3h2l1-6z" fill="#423634"/>
<path transform="translate(549,863)" d="m0 0h14l-1 4-13 17-12 14-10 8-6 2-1-3 4-10 10-13 3-4h2l2-4 3-3-1-3-6 3v-3-2z" fill="#524945"/>
<path transform="translate(704,812)" d="m0 0 4 2 1 5-19 3-40 2 1 40h-3l-4-35v-13l34-1z" fill="#FDFDFD"/>
<path transform="translate(717,800)" d="m0 0h13l-1 2-3 2-3 3-7 1v5l3 3-2 4-2-1-1 2-3-4-3-1-3-3-15 2h-29l-9-1 1-4h14l2 1 1-3 22-4h8l5-2h4l2 3 1-1-2-2zm2 14 2 1z" fill="#585558"/>
<path transform="translate(914,678)" d="m0 0 5 2h6l6 2v1l-7 1 20 6 15 8 2 3-3 2-16-1-26-9-14-6 1-3z" fill="#534946"/>
<path transform="translate(731,688)" d="m0 0 4 1-2 3h-2v2l-4 2-4 1-3 2-5 2-6 3v-2l-4 4v2l-19 5-11 2h-24l-2-3 3-1 1-3h5 3v-2l24-2 21-5 12-4z" fill="#575456"/>
<path transform="translate(775,394)" d="m0 0 5 5 10 12 7 8 12 13 13 13 8 7 10 9 16 12 16 11 22 14 15 10 16 11 13 10 10 9 3 4h-3l-7-7-9-7-10-7-8-6-8-5-4-3-7-4-5-4-7-4-9-6-16-11-5-4-11-8-14-12-7-7-8-7-18-18-6-7v-2h-2l-3-5-3-3v-2h-2l-5-8z" fill="#534A46"/>
<path transform="translate(818,679)" d="m0 0v3l-2 6-6 5-2 7-17 17-16 12-18 11-7 4-3-1 1-4 7-6 13-8 17-12 16-16h2l2-4 6-7h2l2-4z" fill="#534A46"/>
<path transform="translate(636,839)" d="m0 0 3 3 3 1 1 5-1 2 2-1 2-4 2 11v8l38-2 22-3 5-1h9l-2 2-25 5-26 1-5 1-9 1 2 2 1 2h6v1l-15 1-1-3v-2l-2 2h-3l-1-2-1 2-3-1-2-15z" fill="#514844"/>
<path transform="translate(840,739)" d="m0 0 4 2 3 3v2l5 2 15 10 19 9 1 5-6-1-15-8-8-6-10-8-3-2-11 9-13 12-6 2-4-3 2-4 15-13z" fill="#FDFDFD"/>
<path transform="translate(649,680)" d="m0 0 4 1-2 17-1 6 10 1 1 3 2 1-4 1-5-1-4 4 1 1h10l6 1v1l-18 1-2 5h-1l-1 15-4 2 1-5h2v-8l-4 1-3-1 1-14 3-21 6-2 2-5z" fill="#534B47"/>
<path transform="translate(796,260)" d="m0 0 5 1 5 4 7 10 4 10 2 9 1 13v15l-1 20-3 10-3 3 3-12v-26l-1-12-4-13-3-10-7-10-5-4-8-3-6-1v-1z" fill="#433635"/>
<path transform="translate(779,820)" d="m0 0 8 6 13 9 11 8 9 5 16 8 19 7 27 7v5l-1 1-8-1-24-8-16-7-17-9-8-5-3-3-12-8-11-10-3-3z" fill="#FDFDFD"/>
<path transform="translate(726,855)" d="m0 0 4 1-4 2 4 1v2l-9 2-4 3-10 1-3 2 2 2-20 2h-22l-8-2-2-3 1-1 11-1 3-1 26-1 25-5-2-2z" fill="#565354"/>
<path transform="translate(1006,919)" d="m0 0 2 1v15l2 1v-17h1l1 11 2 39 1 19 2 1h-9l-1-1-1-8-1-31v-20z" fill="#403332"/>
<path transform="translate(894,834)" d="m0 0h1l-1 21-5 40-3 3h-2l-1 4h-2l-1 2-1-4 3-18 3-26 1-5h4l1-8 2-2z" fill="#514845"/>
<path transform="translate(761,650)" d="m0 0h10l1 3-1 4h2l1 5-3-1-2-3-7 8-12 11-15 10-15 8-9 3-8 3-18 4-11 1h-14v-1l33-5 24-8 18-10 17-13 16-16-7-1z" fill="#423534"/>
<path transform="translate(878,688)" d="m0 0h2v15l-7 8-7 10-9 11-3 4-4-2-2-3 10-13 13-18z" fill="#FDFDFD"/>
<path transform="translate(779,880)" d="m0 0 3 1 2 2 1 2 9 3 7 5-4 1v2l5 1 1-2 13 5 10 3 4 2 9 2 7 3 17 5 7 2h6l1 4-2 3v-4l-9-1-32-9-25-10-7-1-31 14h-5l1-3 7-3 6-2 6-3h4v-2l6-2-2-5h-2v-2l-4-2-3-1v-2l-5-2-2-1z" fill="#443836"/>
<path transform="translate(877,679)" d="m0 0h2l-1 6-2 8-7 11-10 14-6 7h-4l-2 5-1 2h-2v2h-2-1-2l1-4 5-5 7-8 7-11 7-10 9-14z" fill="#524946"/>
<path transform="translate(887,698)" d="m0 0 2 1-1 4-1 2 2 1 3 3 2 18v14h-2l-1 4h-2v6l-2 1-2-21-2-28 1 2h2l-2-4z" fill="#575456"/>
<path transform="translate(753,797)" d="m0 0 6 1 4 6-8 2-20 7-14 2-4-3v-3l17-5z" fill="#FDFDFD"/>
<path transform="translate(418,989)" d="m0 0h90l-1 3-50 1h-27l-7 1-4-1z" fill="#403332"/>
<path transform="translate(791,891)" d="m0 0 1 2h2l2 5-6 2v2l-8 3-3 2-10 3-3 3h-2l-1-2-3-1 4-3-3-1-1 2-3 4v-3h-4v2l-9 1v-2l8-3 13-4 24-10z" fill="#544B48"/>
<path transform="translate(535,988)" d="m0 0 78 1-1 2-4-1v2h-95v-2h-2l-1 2v-3z" fill="#3F3231"/>
<path transform="translate(740,791)" d="m0 0h6l-3 2 3 5 7-3h7l1 4-8-1-19 7-12 4h-5l2 6-4-2v-5l4-1 6-2 1-3 1-1h-8v-3z" fill="#534A46"/>
<path transform="translate(781,934)" d="m0 0h36l20 3v2h5v1l-14 1-1 2 14 3v1h-12l-11-2v-2h-6v-1h6v-2h-2l-1-3h-17l-2-1v2h-9l-4-1h-5v-2z" fill="#504643"/>
<path transform="translate(740,850)" d="m0 0 5 3 1 3-6 2h4l3-1 9 6-1 2-6-4-7 1-26 7-5 1h-8l4-4 10-1 1-2 6-2h6l-7-3 4-2h3v-2l10-2z" fill="#544C49"/>
<path transform="translate(1133,1291)" d="m0 0h3v7l-5 13-8 14-4 1-7 7-4-1 6-6v-4l13-19z" fill="#433635"/>
<path transform="translate(1036,847)" d="m0 0 4 1-5 7 1 3-8 13-11 23-2 1-1-11 3-5 1-7 4-1 1-7 3-3v-2l3-2 1-3 3-2z" fill="#403432"/>
<path transform="translate(641,868)" d="m0 0 2 1v2l5-3 2 1-1 3 2 13v15h-4l-2-1v-6l-1 5h-2l-3-21v-6h2z" fill="#565253"/>
<path transform="translate(850,740)" d="m0 0 9 4 2 1v2l6 2 11 7 6 4 3 1v4l-5-1-16-8-3-2-5-1-11-7 2-1-2-4z" fill="#565254"/>
<path transform="translate(719,815)" d="m0 0h2l8 10 9 10 3 3-1 2-6-3-6-5-4-1 4 5-1 3-12-14-6-8h3l3 2 2-1z" fill="#534A47"/>
<path transform="translate(713,858)" d="m0 0h9l-2 2-25 5-26 1-5 1-9 1 2 2 1 2h6v1l-15 1-1-3 2-5h4l-6-1v-1l38-2 22-3z" fill="#534A46"/>
<path transform="translate(661,639)" d="m0 0 11 1 19 5 2 2-7 2h-9l-7-3h-4l-3 7-4 2v-10z" fill="#FDFDFD"/>
<path transform="translate(872,1314)" d="m0 0h2l-1 4-3 7-10 14-9 10h-7l4-4 5-8 11-13 6-9z" fill="#443836"/>
<path transform="translate(432,332)" d="m0 0 1 2h2l6 11 8 11v2l3 1 1 4h2l6 8 13 13 10 8 5 3v2l4 1 16 10-2 1-13-7-14-10-13-11-7-7-9-11-10-13-9-15z" fill="#443837"/>
<path transform="translate(831,659)" d="m0 0 4 1-1 5-9 14-10 13-5 6h-2l2-6 5-5 1-3 2-5 1-4 5-8h2l2-5z" fill="#524945"/>
<path transform="translate(800,824)" d="m0 0 21 14 12 6 21 8 21 6-2 2-7-1-17-5-16-6-10-6-6-3-12-8-5-3z" fill="#443836"/>
<path transform="translate(765,783)" d="m0 0 3 4-1 3h-5l-3 4-2 2-6 1-6 2-2-5v-3l3-2 9-4 8-1z" fill="#554D4B"/>
<path transform="translate(428,710)" d="m0 0h14l2 2 8 5v3l8 7 2 4 4 2 3 6-4-2-5-5-9-8-19-12z" fill="#423634"/>
<path transform="translate(878,668)" d="m0 0 1 3 1 2 3 27v7l-2-4-1-15-4 1 3-10-3 3-7 11-2 3-3-1 2-2-1-3 9-15h2l1-6z" fill="#433635"/>
<path transform="translate(888,873)" d="m0 0 3 3-1 12-1 7-3 3h-2l-1 4h-2l-1 2-1-4 3-18 5-2z" fill="#575355"/>
<path transform="translate(916,678)" d="m0 0h15l21 8 8 5 4 2 5 5 5 4v2l-4-2-8-6-12-7-13-4-11-3-3-1-5-1z" fill="#413533"/>
<path transform="translate(786,877)" d="m0 0 5 2 17 9 19 8 22 7 7 2-1 2-10-2-16-5-15-6-9-4-1-2-5-2-7-2-4-4-2-1z" fill="#463A38"/>
<path transform="translate(714,747)" d="m0 0 4 1-10 4-24 5-16 2-23 1-1-3 28-1 9-2 26-5z" fill="#473C39"/>
<path transform="translate(421,708)" d="m0 0 5 1v3l8 4-1 2 4 4v2h-3l6 8 5 3 6 8v2h2v2h2v2l-4-2-7-6-11-14-12-16z" fill="#433735"/>
<path transform="translate(828,940)" d="m0 0h13l10 1 2 8-7 1-10-2 2-2-9-2-2-1z" fill="#575456"/>
<path transform="translate(974,704)" d="m0 0 4 2 7 8 2 2v-2h2l4 6 2 2v3h2l6 10 2 5-1 3-3-3h-2l-10-17-11-13z" fill="#433735"/>
<path transform="translate(1090,640)" d="m0 0 4 1-17 9-7 6-7 9-3 5-4 4-1 4-3-1 4-8 4-4-3 3h-2l-2 6-2 2-1-3 4-7 5-5 4-2 5-5 11-8z" fill="#544B47"/>
<path transform="translate(1019,764)" d="m0 0 2 1-2 19-2 11h-2v-3l-3-1 1-7h-2v-8h2l1-3 3-3v-4h2z" fill="#413534"/>
<path transform="translate(1131,799)" d="m0 0 6 2-4 2-6 2-3 2-4 1-1 3-16 1-5-1 2-2 18-6 10-2z" fill="#524845"/>
<path transform="translate(851,724)" d="m0 0 1 3-3 5 11 11h-6l-3-2-3 1 1 3-4-2-3-3h-4l2-5 4-1v-2h2l2-5z" fill="#4E4543"/>
<path transform="translate(536,738)" d="m0 0 1 2-4 11-4 9-13 40h-1v-8l1-4-1-2 2-1 3-10h2l1-7 5-13 5-11 2-5z" fill="#3F3231"/>
<path transform="translate(636,822)" d="m0 0 3 3-1 3h2l-1-5 3-1v13l1 5h3l-1 9-3 1v-7l-4 1-2-5z" fill="#575558"/>
<path transform="translate(746,857)" d="m0 0 6 3 4 3-1 2-6-4-7 1-26 7-5 1h-8l4-4 10-1 17-4z" fill="#463A39"/>
<path transform="translate(828,645)" d="m0 0h5l3 2-1 3-1 4-7 11-1 2h-2v2l-4 1-1-2 5-8 3-6 5-7h-8z" fill="#463A37"/>
<path transform="translate(747,935)" d="m0 0h9l11 3 2 2-19 1-10 1h-11v-1l16-3 2-1z" fill="#575456"/>
<path transform="translate(831,906)" d="m0 0 8 1 7 3 17 5 7 2h6l1 4-2 3v-4l-9-1-32-9-3-2z" fill="#433736"/>
<path transform="translate(837,938)" d="m0 0 11 1 18 4 3 1v2l-10-1-4 5 6 1v1h-7l-3-1 1-3-1-7h-10z" fill="#514744"/>
<path transform="translate(791,891)" d="m0 0 1 2h2l2 5-6 2v2l-10 3v-3l-2-4 12-6z" fill="#554B45"/>
<path transform="translate(709,695)" d="m0 0 3 1-3 3-14 4-10 2-11 1h-14v-1l33-5z" fill="#463A38"/>
<path transform="translate(1107,1233)" d="m0 0h2v2l-11 9-19 19-5 6h-2l2-4 6-7 6-6 2-4 4-4 3-1 3-3z" fill="#443836"/>
<path transform="translate(1012,954)" d="m0 0h1l2 34 2 1h-9l-1-1-1-8v-11h1l2 11 1 3 1-5z" fill="#524844"/>
<path transform="translate(835,789)" d="m0 0 4 1 17 9 24 9 4 2-6 1-16-6-16-8-11-7z" fill="#463A38"/>
<path transform="translate(643,884)" d="m0 0 6 1 2 3v12h-4l-2-1v-6l-1 5h-2l-1-12z" fill="#575456"/>
<path transform="translate(743,293)" d="m0 0h6l-2 11-3 4-2 9-2-3v-11l-1-2 2-7z" fill="#463B39"/>
<path transform="translate(881,810)" d="m0 0 7 1 1 22-2 7-2 1v-10l1-12-7-1v-2l7 1 1-4h-5z" fill="#433735"/>
<path transform="translate(742,841)" d="m0 0 8 6 7 7 11 9 12 9 6 4-2 1-13-8-9-7-4-3v-2l-3-1-7-8-6-5z" fill="#534A46"/>
<path transform="translate(914,611)" d="m0 0h2l-2 4-13 9-11 6-4-1 3-1 1-2h4l1-4 11-6z" fill="#433735"/>
<path transform="translate(864,691)" d="m0 0 3 2-2 2v4l-10 14-3 1-1-4 10-14z" fill="#453937"/>
<path transform="translate(798,761)" d="m0 0 2 1-3 3-1 3-4 2-9 6-5 2-7 3-1-3 15-8z" fill="#443836"/>
<path transform="translate(781,934)" d="m0 0h27l8 1v1l-12 1h-6l-2-1v2h-9l-4-1h-5v-2z" fill="#3F3231"/>
<path transform="translate(873,691)" d="m0 0h2l-1 5-7 11-8 11-3-1 4-8h2l2-5 1-2 2-1 2-4 4-4z" fill="#453937"/>
<path transform="translate(707,255)" d="m0 0 6 1 1 2v6l-2 2-6-1-2-3 1-6z" fill="#FDFDFD"/>
<path transform="translate(713,858)" d="m0 0h9l-2 2-25 5h-17v-1l9-1h9v-2z" fill="#433736"/>
<path transform="translate(666,645)" d="m0 0 6 1 5 2 7 1v1l-20 4-3-1 2-1z" fill="#DAB656"/>
<path transform="translate(823,674)" d="m0 0 2 2-1 4-9 12-5 6h-2l2-6 5-5 1-3z" fill="#453937"/>
<path transform="translate(815,937)" d="m0 0 1 3h2v4l-17-1-2-2 1-2-2-1h15z" fill="#555152"/>
<path transform="translate(1031,860)" d="m0 0 2 2-12 23-2 3-1-5 8-16z" fill="#504643"/>
<path transform="translate(895,780)" d="m0 0h1v44h-1l-2-30v-9z" fill="#4E4544"/>
<path transform="translate(421,708)" d="m0 0 5 1v3l8 4-1 2 4 4v2h-4l-4-2-8-11z" fill="#423534"/>
<path transform="translate(1091,802)" d="m0 0 7 1v2l-17 7-5 2 1-4 5-3z" fill="#433635"/>
<path transform="translate(686,920)" d="m0 0h13v1l-17 2-23 1 1-3z" fill="#514844"/>
<path transform="translate(644,715)" d="m0 0 4 2-1 5h-1l-1 15-4 2 1-5h2v-8l-4 1-2-1 2-4 2 1v-7z" fill="#585659"/>
<path transform="translate(807,761)" d="m0 0 4 1v2 1l7 8 2 3-7-1v-3l-2-1 1-2-5-1h-3l-5-2 2-2 6-1z" fill="#565253"/>
<path transform="translate(534,751)" d="m0 0 1 3-8 21-3 1 1-6 5-15 4-2z" fill="#504643"/>
<path transform="translate(878,905)" d="m0 0 1 2-3 9-4-2-3-2-11-3-3-1v-2l8 1 12 3h2z" fill="#433735"/>
<path transform="translate(821,940)" d="m0 0 6 2 4 2 10 2v1h-12l-11-2v-2h-6v-1l7-1 2 1z" fill="#433736"/>
<path transform="translate(672,756)" d="m0 0h8l-3 2-26 2h-6l-1-3z" fill="#3F3231"/>
<path transform="translate(851,724)" d="m0 0 1 3-3 5 5 5-1 2-3-2-1 2-4-3-5 2v2h-2l2-5 4-1v-2h2l2-5z" fill="#433735"/>
<path transform="translate(880,693)" d="m0 0h1l1 14h2l1 24-2 3-2-24-1-6z" fill="#4A3F3C"/>
<path transform="translate(761,906)" d="m0 0 4 1-2 3 2 1-1 2 4 1-11 3-7-1 4-2h3l2-7z" fill="#575456"/>
<path transform="translate(723,696)" d="m0 0 2 1-1 3-16 7h-5l2-1 2-4h2l1 1 2-2 6-3 4-1z" fill="#493F3C"/>
<path transform="translate(765,783)" d="m0 0 3 4-1 3h-5l-3 4-2 2-3-1 1-4 2-1v-2l-2-1h5l3-3z" fill="#575557"/>
<path transform="translate(863,753)" d="m0 0 11 6 10 5 3 1 1-2v5l-9-3-17-9-1-2z" fill="#443938"/>
<path transform="translate(718,798)" d="m0 0m-4 1 4 1-7 2 2 2-3 2-1-4-7 2-6 1-15 1 1-2 20-2 1-2z" fill="#544B47"/>
<path transform="translate(882,877)" d="m0 0h1l-1 13-3 15-2 5h-1l1-10 3-19z" fill="#473C3A"/>
<path transform="translate(742,743)" d="m0 0 6 1-2 2-17 7h-2l2-4z" fill="#534A47"/>
<path transform="translate(466,724)" d="m0 0 4 1 10 13 3 6-1 3-4-5v-2l-4-4-4-6-4-5z" fill="#423635"/>
<path transform="translate(800,824)" d="m0 0 21 14 4 3-7-1-10-7-8-5z" fill="#463B39"/>
<path transform="translate(947,608)" d="m0 0 3 1-5 5-3 1-1 3-3 3-1 4-4 1v3h-2l-1-5 11-10h2l2-4z" fill="#4D423F"/>
<path transform="translate(836,792)" d="m0 0 5 1 12 7 7 3-1 2-10-2-3-4-6-2z" fill="#544D4B"/>
<path transform="translate(582,692)" d="m0 0h2v2l-8 7-3 3-1 3-6 5h-2l2-4 7-8z" fill="#453937"/>
<path transform="translate(736,739)" d="m0 0 3 1-1 2-18 7-3-1v-2z" fill="#453937"/>
<path transform="translate(432,332)" d="m0 0 1 2h2l6 11 8 11-1 3-10-14-6-10z" fill="#463A39"/>
<path transform="translate(805,897)" d="m0 0 6 1 9 3 10 4 1 3-10-3-16-6z" fill="#453A39"/>
<path transform="translate(894,738)" d="m0 0h1v10l-2 2v6l-5-2v-3l1-6 2-1 1-3h2z" fill="#544B48"/>
<path transform="translate(420,1341)" d="m0 0 3 3 2 5 8 10 7 6v2l2 1-4-1-13-13-5-9z" fill="#443836"/>
<path transform="translate(806,767)" d="m0 0 3 1 1 6-2-1-1-3v3l6 7 5 4-1 2-12-11-2-4-2-1h2v-2z" fill="#473D3B"/>
<path transform="translate(547,883)" d="m0 0 1 2-9 11-4 4-3-1 4-5v-2l6-5 4-1z" fill="#433736"/>
<path transform="translate(822,778)" d="m0 0 4 2 10 8-2 3-8-4-1-3-3-3z" fill="#544B48"/>
<path transform="translate(974,704)" d="m0 0 4 2 7 8 5 5 1 4h2l-1 3-5-5-8-10-5-6z" fill="#463A38"/>
<path transform="translate(462,1203)" d="m0 0 4 5 10 11v2l4 2 4 5-4-2-8-7-10-13z" fill="#473C3A"/>
<path transform="translate(858,944)" d="m0 0 6 1 2 2-2 1 3 3-5 1-7-2 2-4z" fill="#575457"/>
<path transform="translate(731,916)" d="m0 0h9l2 2h-5l2 2 3 2-6 1-3-2-3 1-1-5z" fill="#544B47"/>
<path transform="translate(721,864)" d="m0 0m-4 1h4l-1 3-9 2h-8l4-4z" fill="#433736"/>
<path transform="translate(592,480)" d="m0 0 4 1-14 7-8 3-4-1 12-5z" fill="#453A38"/>
<path transform="translate(650,866)" d="m0 0 5 1 1 3h2v2h6v1l-15 1-1-3z" fill="#544B48"/>
<path transform="translate(886,854)" d="m0 0h3v8l-2 4 1 3-4 1v-8z" fill="#575457"/>
<path transform="translate(740,850)" d="m0 0 4 4-15 4h-6l4-2h3v-2l10-2z" fill="#423534"/>
<path transform="translate(694,759)" d="m0 0h9l-1 2-13 3h-12v-1l16-3z" fill="#4B403E"/>
<path transform="translate(887,824)" d="m0 0h2v11l-2 5-2 1v-10z" fill="#423634"/>
<path transform="translate(952,689)" d="m0 0h5l7 4 5 5 5 4v2l-4-2-8-6-10-6z" fill="#463A38"/>
<path transform="translate(771,260)" d="m0 0h5l-2 3h-2v2l-6 2-1 1-7 2v-2z" fill="#443937"/>
<path transform="translate(888,873)" d="m0 0 3 3-1 12-2 2-3-4 2-7z" fill="#554F4D"/>
<path transform="translate(886,840)" d="m0 0h1v11l-2 7-2 1 1-17z" fill="#453937"/>
<path transform="translate(746,297)" d="m0 0h1v7l-3 4-2 9-2-3 1-13 1 3h2l-1-3h2z" fill="#544B47"/>
<path transform="translate(418,237)" d="m0 0 4 3 4 2v3l-2 1 6 8 2 2-4-1-9-13z" fill="#453937"/>
<path transform="translate(835,789)" d="m0 0 4 1 17 9 3 2h-6l-17-10z" fill="#4A3F3C"/>
<path transform="translate(853,1340)" d="m0 0h5l-2 4-5 5h-7l4-4 4-1z" fill="#4A3F3D"/>
<path transform="translate(649,933)" d="m0 0h3v2h5l1 2-2 2v-2l-2 1 1 2h-2l-2 4-2-7z" fill="#565151"/>
<path transform="translate(757,906)" d="m0 0h2l-1 6-1-3h-4v2l-9 1v-2l8-3z" fill="#4B413E"/>
<path transform="translate(649,680)" d="m0 0 4 1v4h-2l-2 8h-5l-1 3v-6l4-1 2-5z" fill="#575355"/>
<path transform="translate(780,905)" d="m0 0m-1 1 1 3-9 4h-5l1-3 7-3z" fill="#433735"/>
<path transform="translate(757,865)" d="m0 0 4 2 7 6 9 6-3 1-11-8-6-5z" fill="#463C3B"/>
<path transform="translate(505,853)" d="m0 0h2l1 15-1 5-3-3z" fill="#3F3231"/>
<path transform="translate(1011,754)" d="m0 0 2 4 2 9h-2v-2l-3-1-2-5 1-3z" fill="#413433"/>
<path transform="translate(902,971)" d="m0 0 5 2 6 7 7 6-3 1-15-15z" fill="#443837"/>
<path transform="translate(746,333)" d="m0 0h1l3 15-2 3-1-6h-2l-1-8z" fill="#4F4542"/>
<path transform="translate(1049,1344)" d="m0 0 4 5 2 4h2v2h2v2l9 2v1h-6l-6-4-6-7z" fill="#463A39"/>
<path transform="translate(786,877)" d="m0 0 5 2 14 7v1h-5l-3-2-5-1-4-4-2-1z" fill="#4A3F3D"/>
<path transform="translate(884,858)" d="m0 0 1 4-2 3-10-4v-2h10z" fill="#413433"/>
<path transform="translate(727,804)" d="m0 0h5l-1 2-9 3h-5l2 6-4-2v-5l4-1z" fill="#524A48"/>
<path transform="translate(823,674)" d="m0 0 2 2-1 4-4 6-3-1 1-4z" fill="#433635"/>
<path transform="translate(1071,647)" d="m0 0m-2 1 2 1-6 6-2 5-4 2-4 3 2-4 9-10z" fill="#463B39"/>
<path transform="translate(836,900)" d="m0 0 9 2 11 3-1 2-10-2-7-2v-2z" fill="#473C39"/>
<path transform="translate(799,834)" d="m0 0 5 2 4 1 1 3h4l2 5-7-3-9-7z" fill="#453B3A"/>
<path transform="translate(643,824)" d="m0 0h1l1 5v15l-3-3-1-7 1-1z" fill="#4A3F3D"/>
<path transform="translate(862,707)" d="m0 0h3l-1 4-5 7-3-1 4-8h2z" fill="#423634"/>
<path transform="translate(858,808)" d="m0 0 20 7v1l-8-1-11-4z" fill="#443938"/>
<path transform="translate(1008,797)" d="m0 0h1l1 6 2 4v7l-2 3-1-3 1-2-2-1z" fill="#3F3231"/>
<path transform="translate(518,774)" d="m0 0 3 3-4 9-3 1 2-9z" fill="#544B47"/>
<path transform="translate(539,865)" d="m0 0h8l2 2-5 2h-3l-4 2v-3-2z" fill="#443836"/>
<path transform="translate(894,834)" d="m0 0h1v9l-1 9-3 1v-10l2-2z" fill="#514947"/>
<path transform="translate(912,582)" d="m0 0 4 2v2l-2 1h-7l-4-2v-1z" fill="#423534"/>
<path transform="translate(861,915)" d="m0 0 9 2h6l1 4-2 3v-4l-9-1-5-2z" fill="#443837"/>
<path transform="translate(1006,919)" d="m0 0 2 1v17h-2l-1-8z" fill="#3F3231"/>
<path transform="translate(779,880)" d="m0 0 3 1 2 2 1 2 5 2 1 4-6-3v-2l-5-2-2-1z" fill="#52453C"/>
<path transform="translate(529,763)" d="m0 0 1 4-4 9h-2l1-6 3-6z" fill="#4F4541"/>
<path transform="translate(709,695)" d="m0 0 3 1-3 3-6 2-4-1 1-2z" fill="#453937"/>
<path transform="translate(828,645)" d="m0 0h5l3 2-1 3-4 4-1-4 2-3h-8z" fill="#463B39"/>
<path transform="translate(1112,1324)" d="m0 0 3 2-6 6-2 4-3-1 2-4z" fill="#4B413E"/>
<path transform="translate(1025,859)" d="m0 0 2 2-2 5h-2l-1 5-4 1 2-6z" fill="#544B47"/>
<path transform="translate(1091,802)" d="m0 0 7 1v2l-10 3-1-2z" fill="#453937"/>
<path transform="translate(970,1298)" d="m0 0 3 1-1 3v7l-3 1v-4l-1-4z" fill="#423635"/>
<path transform="translate(702,808)" d="m0 0h4v2h2l2 5-2 1-3-3h-5v-2l3-1z" fill="#4F4543"/>
<path transform="translate(810,768)" d="m0 0 5 1 5 7-7-1v-3l-2-1 1-2z" fill="#514744"/>
<path transform="translate(444,724)" d="m0 0 4 2 8 7-1 3-11-10z" fill="#433735"/>
<path transform="translate(561,714)" d="m0 0h2v3l4 2-5 2h-4l2-5z" fill="#453937"/>
<path transform="translate(800,824)" d="m0 0 12 8-4 1-8-5z" fill="#4B413E"/>
<path transform="translate(642,782)" d="m0 0h1v12h-3v-10z" fill="#575457"/>
<path transform="translate(849,736)" d="m0 0 6 2 5 5h-6l-4-3z" fill="#524945"/>
<path transform="translate(791,888)" d="m0 0 4 1 6 4-3 1-6-1z" fill="#3F3231"/>
<path transform="translate(1131,799)" d="m0 0 6 2-4 2-7 1-4-2 7-2z" fill="#544B47"/>
<path transform="translate(524,776)" d="m0 0h2l-3 11-3 1 2-9z" fill="#544B47"/>
<path transform="translate(858,743)" d="m0 0 5 1 9 6-4 1-7-4v-2l-3-1z" fill="#493E3C"/>
<path transform="translate(877,679)" d="m0 0h2l-1 6-4 4-1-4z" fill="#554F4D"/>
<path transform="translate(1053,666)" d="m0 0 2 1-4 6-3 7-2-4z" fill="#4B413E"/>
<path transform="translate(834,660)" d="m0 0 1 3-4 7-3-1 2-5 2-2z" fill="#443836"/>
<path transform="translate(980,1368)" d="m0 0h4v2h2l1-2 1 4-4 2-4-4z" fill="#463B39"/>
<path transform="translate(1082,1257)" d="m0 0v3l-8 9h-2l2-4 6-7z" fill="#423634"/>
<path transform="translate(757,912)" d="m0 0 6 2-1 2-5 1-7-1 4-2h3z" fill="#544B48"/>
<path transform="translate(1022,876)" d="m0 0 2 1-2 6-2 5-2-3 2-6z" fill="#534A46"/>
<path transform="translate(731,862)" d="m0 0 4 2-11 3h-3l1-3z" fill="#473C3A"/>
<path transform="translate(709,816)" d="m0 0 4 2 7 9h-3l-7-8z" fill="#4D4441"/>
<path transform="translate(681,754)" d="m0 0h9v2l-10 1-6-1v-1z" fill="#493E3B"/>
<path transform="translate(494,401)" d="m0 0h5l3 3 6 3 1 2-6-2-9-5z" fill="#463B39"/>
<path transform="translate(1006,969)" d="m0 0h1l2 11 1 6h-3l-1-6z" fill="#544C49"/>
<path transform="translate(805,936)" d="m0 0h10v2l-2 1h-8z" fill="#544B48"/>
<path transform="translate(786,902)" d="m0 0h3v3l-9 3 2-4z" fill="#453937"/>
<path transform="translate(778,774)" d="m0 0 2 1-5 5-5 1v-3z" fill="#433735"/>
<path transform="translate(895,759)" d="m0 0h1v17l-2 4-1-6 1-2z" fill="#544B47"/>
<path transform="translate(1019,764)" d="m0 0 2 1-1 13-2-2-1-10h2z" fill="#453937"/>
<path transform="translate(645,721)" d="m0 0h3l-1 15h-1l-1-5z" fill="#514845"/>
<path transform="translate(1045,681)" d="m0 0 1 4-1 2-3 2-1 3-3 1 2-6z" fill="#4F4542"/>
<path transform="translate(1095,652)" d="m0 0 4 1-6 5-4-2 3-1v-2z" fill="#544B47"/>
<path transform="translate(863,753)" d="m0 0 8 5v3l-10-6z" fill="#433837"/>
<path transform="translate(742,743)" d="m0 0 6 1-2 2-7 2v-4z" fill="#544C49"/>
<path transform="translate(889,700)" d="m0 0 2 1v13h-1l-1-6-2-3z" fill="#4D4340"/>
<path transform="translate(872,685)" d="m0 0 1 2-6 9-3-1 2-2-1-3 5-2z" fill="#3F3231"/>
<path transform="translate(932,622)" d="m0 0h5v3l-4 1v3h-2l-1-5z" fill="#433735"/>
<path transform="translate(990,1352)" d="m0 0 1 3-4 4-3 6-1-4 3-6z" fill="#443836"/>
<path transform="translate(710,917)" d="m0 0h6l-3 3h-13v-1z" fill="#4F4542"/>
<path transform="translate(777,900)" d="m0 0h5v3l-6 3-3-1v-2h3z" fill="#575557"/>
<path transform="translate(753,795)" d="m0 0h7l1 4-8-1-4-1z" fill="#443836"/>
<path transform="translate(719,753)" d="m0 0 4 1-2 2-8 2-1-4z" fill="#4B413F"/>
<path transform="translate(723,744)" d="m0 0h4v2l-7 3-3-1v-2z" fill="#433736"/>
<path transform="translate(564,492)" d="m0 0 3 1-9 4h-5l2-2z" fill="#443836"/>
</svg>
